<svg id="e93be806-f8ad-487c-a662-dba7c53411b2" data-name="Layer 1" xmlns="http://www.w3.org/2000/svg" viewBox="0 0 515 692"><path d="M609.75,400.5" transform="translate(-142.5 -54)" fill="none" stroke="#231f20" stroke-miterlimit="10" stroke-width="5"/><path d="M190.25,400.5" transform="translate(-142.5 -54)" fill="none" stroke="#231f20" stroke-miterlimit="10" stroke-width="5"/><path d="M657.5,746h-515V54h515Zm-500-15h485V69h-485Z" transform="translate(-142.5 -54)" fill="#231f20"/><rect x="141.34" y="70.5" width="325.92" height="15" fill="#231f20"/><rect x="47.75" y="129.5" width="419.5" height="15" fill="#231f20"/><rect x="47.75" y="188.5" width="419.5" height="15" fill="#231f20"/><rect x="47.75" y="247.5" width="419.5" height="15" fill="#231f20"/><rect x="47.75" y="306.5" width="419.5" height="15" fill="#231f20"/><rect x="47.75" y="365.5" width="419.5" height="15" fill="#231f20"/><rect x="47.75" y="424.5" width="419.5" height="15" fill="#231f20"/><rect x="136.58" y="483.5" width="330.67" height="15" fill="#231f20"/><rect x="47.75" y="542.5" width="419.5" height="15" fill="#231f20"/><rect x="47.75" y="601.5" width="419.5" height="15" fill="#231f20"/><path d="M609.75,722" transform="translate(-142.5 -54)" fill="none" stroke="#231f20" stroke-miterlimit="10" stroke-width="5"/><path d="M190.25,722" transform="translate(-142.5 -54)" fill="none" stroke="#231f20" stroke-miterlimit="10" stroke-width="5"/></svg>