<svg id="ae56887d-adae-4cb2-b448-5451b8f494cd" data-name="Layer 1" xmlns="http://www.w3.org/2000/svg" xmlns:xlink="http://www.w3.org/1999/xlink" viewBox="0 0 449.13 677.53"><defs><linearGradient id="adcb7dfc-9e6a-4079-95d4-09fbfbd95056" x1="130.97" y1="338.77" x2="331.59" y2="338.77" gradientUnits="userSpaceOnUse"><stop offset="0" stop-color="#467594"/><stop offset="0.66" stop-color="#467594" stop-opacity="0.99"/><stop offset="0.9" stop-color="#467594" stop-opacity="0.94"/><stop offset="1" stop-color="#467594" stop-opacity="0.9"/></linearGradient></defs><polygon points="231.28 238.8 263.96 244.25 293.1 260.02 315.54 284.4 328.85 314.75 331.59 347.76 323.45 379.88 305.33 407.62 279.19 427.97 247.85 438.73 214.71 438.73 183.38 427.97 157.23 407.62 139.11 379.88 130.97 347.76 133.71 314.75 147.02 284.4 169.46 260.02 198.6 244.25 231.28 238.8" stroke="#467594" stroke-miterlimit="10" stroke-width="0.75" fill="url(#adcb7dfc-9e6a-4079-95d4-09fbfbd95056)"/><line x1="7.5" y1="116" x2="7.5" y2="670.03" fill="none" stroke="#f1c788" stroke-miterlimit="10" stroke-width="15"/><path d="M393.21,177.23a108.5,108.5,0,1,0-217,0" transform="translate(-168.72 -61.23)" fill="none" stroke="#f1c788" stroke-miterlimit="10" stroke-width="15"/><line x1="224.5" y1="154.4" x2="223.72" y2="155.51" fill="none" stroke="#f1c788" stroke-miterlimit="10" stroke-width="15"/><line x1="223.72" y1="155.72" x2="267.97" y2="92.51" fill="none" stroke="#f1c788" stroke-miterlimit="10" stroke-width="15"/><line x1="224.5" y1="154.4" x2="225.27" y2="155.51" fill="none" stroke="#f1c788" stroke-miterlimit="10" stroke-width="15"/><line x1="224.5" y1="152.15" x2="224.5" y2="115.22" fill="none" stroke="#f1c788" stroke-miterlimit="10" stroke-width="15"/><line x1="225.41" y1="155.72" x2="181.16" y2="92.51" fill="none" stroke="#f1c788" stroke-miterlimit="10" stroke-width="15"/><circle cx="224.53" cy="155.72" r="6.75" fill="#f1c788"/><line x1="441.63" y1="561.54" x2="441.63" y2="7.5" fill="none" stroke="#f1c788" stroke-miterlimit="10" stroke-width="15"/><path d="M393.36,622.77a108.5,108.5,0,1,0,217,0" transform="translate(-168.72 -61.23)" fill="none" stroke="#f1c788" stroke-miterlimit="10" stroke-width="15"/><line x1="224.64" y1="523.13" x2="225.41" y2="522.02" fill="none" stroke="#f1c788" stroke-miterlimit="10" stroke-width="15"/><line x1="225.41" y1="521.81" x2="181.16" y2="585.02" fill="none" stroke="#f1c788" stroke-miterlimit="10" stroke-width="15"/><line x1="224.64" y1="523.13" x2="223.86" y2="522.02" fill="none" stroke="#f1c788" stroke-miterlimit="10" stroke-width="15"/><line x1="224.64" y1="525.38" x2="224.64" y2="562.32" fill="none" stroke="#f1c788" stroke-miterlimit="10" stroke-width="15"/><line x1="223.72" y1="521.81" x2="267.97" y2="585.02" fill="none" stroke="#f1c788" stroke-miterlimit="10" stroke-width="15"/><circle cx="224.6" cy="521.81" r="6.75" fill="#f1c788"/></svg>