<svg id="e5aec1cf-980f-4ef5-8b67-cd6c66183c01" data-name="Layer 1" xmlns="http://www.w3.org/2000/svg" viewBox="0 0 680 680"><path d="M397.75,400q0,27.6-9,47.55a89.73,89.73,0,0,1-24.86,33,104.35,104.35,0,0,1-37.29,19.35,162.19,162.19,0,0,1-46,6.3h-60.2V293.8h60.2a165.89,165.89,0,0,1,46,6.15,102.51,102.51,0,0,1,37.29,19.2,89.45,89.45,0,0,1,24.86,33.15Q397.76,372.4,397.75,400ZM227.05,299.8V500.2h52a160.52,160.52,0,0,0,44-5.85,98.91,98.91,0,0,0,35.61-18,84.9,84.9,0,0,0,23.74-31.05q8.73-18.9,8.72-45.3t-8.72-45.45a84.61,84.61,0,0,0-23.74-31.2,97.09,97.09,0,0,0-35.61-17.85,164.49,164.49,0,0,0-44-5.7Z" transform="translate(-60 -60)" fill="#94aad4" stroke="#94aad4" stroke-miterlimit="10" stroke-width="25"/><path d="M572.05,506.2l-64.2-107.1h-49.8V506.2h-6.6V293.8h58.8a137.29,137.29,0,0,1,23.7,2.1,60,60,0,0,1,21.45,8,45.78,45.78,0,0,1,15.45,16q6,10.2,6,26.4,0,15-5.7,24.9a48.3,48.3,0,0,1-14.7,16.05,60.87,60.87,0,0,1-20,8.85,89.41,89.41,0,0,1-21.45,2.7l64.5,107.4Zm-1.8-159.9q0-13.8-5.4-22.95A40.14,40.14,0,0,0,550.6,309a61,61,0,0,0-20.4-7.35,131.38,131.38,0,0,0-23.55-2.1h-48.6v93.9H510q29.4,0,44.85-12.3T570.25,346.3Z" transform="translate(-60 -60)" fill="#94aad4" stroke="#94aad4" stroke-miterlimit="10" stroke-width="25"/><rect x="15" y="15" width="650" height="650" rx="25.42" fill="none" stroke="#94aad4" stroke-miterlimit="10" stroke-width="30"/></svg>