<svg id="b57f357a-e9c2-4428-adf3-9c4381a4b09a" data-name="Layer 1" xmlns="http://www.w3.org/2000/svg" viewBox="0 0 565 565"><path d="M508.08,609.32H489.46V513H473.13V497.48h16.33v-5.21q0-24.33,10.28-34.44t26.83-10.11a112.74,112.74,0,0,1,15.75,1.4v15.22a95.5,95.5,0,0,0-12.55-1.1,26.14,26.14,0,0,0-15.37,4.42q-6.31,4.41-6.32,21.08v8.74h32.64V513H508.08Z" transform="translate(-118 -118)" fill="#231f20"/><path d="M492.46,274v-5.51c0-14.71,5.1-29.82,18-40.85,7.15-6.33,14.91-9.81,22.88-10.83,6.94.21,13.27,2.66,16.54,6.54a6.55,6.55,0,0,1,1.23,7.15c-.61,2-2.86,4.9-4.9,6.53-2.25,1.43-3.89,1-5.93-.4-4.08-3.68-9.8-8.38-16.54-8.38-15.12,0-15.12,20.63-15.12,36.15V274h21.65c1.23,1.84.21,6.95-2,8.38H508.59v59c0,14.7,2.25,14.91,17.57,16.54v5.72h-48V358c12.87-1.22,14.3-2,14.3-15.32V282.38H478l-.82-2.25,4.49-6.13Z" transform="translate(-118 -118)" fill="#231f20"/><path d="M275.88,344.43a6.55,6.55,0,0,0,1.26-.25,5.89,5.89,0,0,1,1.25-.26c.67,0,1.09.45,1.26,1.34s0,1.51-.42,1.84c-.89.67-2,1.45-3.35,2.35s-2.82,1.81-4.43,2.76-3.21,1.87-4.77,2.76-2.91,1.67-4,2.34c-.67.34-1.65.87-2.93,1.59l-3.85,2.18c-1.28.72-2.48,1.34-3.6,1.84a7.42,7.42,0,0,1-2.17.75,2.16,2.16,0,0,1-1.59-.83,2.4,2.4,0,0,1-.75-1.51c0-.56,0-.86.16-.92s.34-.2.67-.42c.67-.45,1.59-1,2.76-1.67s2-2.12,2.6-4.35a85.08,85.08,0,0,0,1.34-8.71q.66-5.85,1.17-13.64c.33-5.18.61-10.88.83-17.07s.34-12.58.34-19.16v-7.11q0-3.43-.17-6.11c-.22,0-1.09-.09-2.59-.25s-3.1-.36-4.77-.59-3.21-.47-4.6-.75-2.1-.64-2.1-1.09c0-.22,0-.56-.08-1s.36-1.12,1.25-2,2-1.9,3.27-3,2.54-2.23,3.76-3.34,2.37-2.12,3.44-3,1.86-1.61,2.42-2.17c.11-3.35.2-6.39.25-9.12s.2-5.22.42-7.45a22.33,22.33,0,0,1,1.34-6.61,17.36,17.36,0,0,1,2.85-4.6c1.34-1.57,4-3.54,7.86-6a155.59,155.59,0,0,1,13.89-7.44c1.9-.89,3.54-1.68,4.94-2.35a27.62,27.62,0,0,1,4.1-1.59,31,31,0,0,1,9.21-1.25A44.08,44.08,0,0,1,315,220.16a21.68,21.68,0,0,1,8.12,4.1c0,.45-.73,1.4-2.18,2.84s-3.12,3.1-5,4.94-3.79,3.71-5.69,5.61A33.73,33.73,0,0,0,306,242.5a1.15,1.15,0,0,1-1.51.5c-.67-.22-.89-.55-.67-1a14.36,14.36,0,0,0,.59-1.34,4.7,4.7,0,0,0,.25-1.67q0-4.53-4.52-7.87t-11.55-3.35a9.56,9.56,0,0,0-6.69,2.43q-2.69,2.43-4.19,8.12a78.55,78.55,0,0,0-1.92,12.47q-.58,7.11-.92,18.16a45.48,45.48,0,0,0,6.11.75q3.76.26,8.11.25h6.28q3.44,0,6.7-.17t6.19-.42a26.59,26.59,0,0,0,4.77-.75,2.12,2.12,0,0,1,.67,1.51,16.93,16.93,0,0,1-7.37,5.77,61.64,61.64,0,0,1-10.79,3.68A76.08,76.08,0,0,1,284,281.5q-5.78.5-9.46.5,0,2.85-.16,7.95c-.12,3.4-.23,7.06-.34,11s-.19,7.84-.25,11.8-.08,7.51-.08,10.63c0,2.57,0,5.08.08,7.53s.14,4.63.25,6.53a31.23,31.23,0,0,0,.59,4.77C274.9,343.45,275.32,344.2,275.88,344.43Z" transform="translate(-118 -118)" fill="#231f20"/><path d="M279.7,523.26h-8.33l.6-2.89h8.41l8-37.28a106,106,0,0,1,4.16-14.78,39.54,39.54,0,0,1,5.1-9.51q7.31-9.76,18.17-9.77a18.41,18.41,0,0,1,6.71,1.19L319.44,458a10.25,10.25,0,0,0-8.66-4.76,8,8,0,0,0-6.5,3.1q-2.5,3.1-4.29,10.24l-13,53.84h13.67l-.59,2.89H286.32L274.69,571.5a84.08,84.08,0,0,1-4.46,14.44,33.55,33.55,0,0,1-5.91,8.83q-6.79,7.4-14.86,7.39a16.88,16.88,0,0,1-7-1.36l4.16-6.11a12.07,12.07,0,0,0,7.73,2.89q6.28,0,9.42-6.63,2.29-4.92,4.84-16.31Z" transform="translate(-118 -118)" fill="#231f20" stroke="#231f20" stroke-miterlimit="10" stroke-width="6"/><circle cx="282.5" cy="282.5" r="275" fill="none" stroke="#231f20" stroke-miterlimit="10" stroke-width="15"/><path d="M400,125" transform="translate(-118 -118)" fill="#231f20"/><line x1="282" y1="7" x2="282" y2="282" fill="#231f20" stroke="#231f20" stroke-miterlimit="10" stroke-width="5" opacity="0.5"/><line x1="557" y1="282" x2="282" y2="282" fill="none"/><line x1="282" y1="557" x2="282" y2="282" fill="#231f20" stroke="#231f20" stroke-miterlimit="10" stroke-width="5" opacity="0.5"/><line x1="7" y1="282" x2="282" y2="282" fill="#231f20" stroke="#231f20" stroke-miterlimit="10" stroke-width="5" opacity="0.5"/><line x1="557" y1="282" x2="282" y2="282" fill="#231f20" stroke="#231f20" stroke-miterlimit="10" stroke-width="5" opacity="0.5"/><line x1="7" y1="282" x2="157" y2="282.5" fill="none" stroke="#231f20" stroke-miterlimit="10" stroke-width="15"/><line x1="282.5" y1="7.75" x2="282.5" y2="157.75" fill="none" stroke="#231f20" stroke-miterlimit="10" stroke-width="15"/><line x1="557" y1="282" x2="407" y2="282" fill="none" stroke="#231f20" stroke-miterlimit="10" stroke-width="15"/><line x1="282" y1="557" x2="282.5" y2="407" fill="none" stroke="#231f20" stroke-miterlimit="10" stroke-width="15"/></svg>