<svg id="f196c218-4f72-49b9-b4a1-9ad078e5abd7" data-name="Layer 1" xmlns="http://www.w3.org/2000/svg" viewBox="0 0 366.05 509.55"><rect x="1" y="1" width="350" height="500" rx="0.36" fill="#fff" stroke="#231f20" stroke-miterlimit="10" stroke-width="2"/><path d="M339.8,454.75H362V318H339.8v-2.8h38c1.6,0,3.2,0,4.8-.1s3.2-.17,4.8-.3,3.2,0,4.8-.1,3.2-.1,4.8-.1a146.55,146.55,0,0,1,20.8,1.3,34.76,34.76,0,0,1,16.8,7.5,30.76,30.76,0,0,1,9.9,12.2,32.77,32.77,0,0,1,2.9,12.8,35.44,35.44,0,0,1-1.1,7.7,25.89,25.89,0,0,1-4.8,9.6,35.78,35.78,0,0,1-10.7,9q-7,4.1-18.6,5.5v.4q3.19.4,8.7,1.5a51.16,51.16,0,0,1,11.2,3.7,41.28,41.28,0,0,1,10.5,6.9,23.39,23.39,0,0,1,6.8,11.1,47.91,47.91,0,0,1,1.7,9.1q.5,5.1.8,10.5t.6,10.4a51.14,51.14,0,0,0,1.1,8.4,31,31,0,0,0,3.8,9.4q2.6,4.2,8.4,4.2a16,16,0,0,0,5.4-1,13.37,13.37,0,0,0,5-3.2l1.8,2.2c-.67.53-1.43,1.1-2.3,1.7a16.79,16.79,0,0,1-3.3,1.7,25.29,25.29,0,0,1-4.9,1.3,43,43,0,0,1-7.1.5,38.1,38.1,0,0,1-13.3-2,19.71,19.71,0,0,1-8.5-5.9,24.94,24.94,0,0,1-4.7-9.6,76.26,76.26,0,0,1-2.1-13.3L430.4,410q-.79-10-4-15.6a22,22,0,0,0-7.5-8.2,21.58,21.58,0,0,0-8.9-3.1,76.24,76.24,0,0,0-8-.5H382v72.2h22.2v2.8H339.8Zm42.2-75h18.4a35.08,35.08,0,0,0,10.2-1.4,17.79,17.79,0,0,0,7.9-4.9,23.4,23.4,0,0,0,5.1-9.5,53.92,53.92,0,0,0,1.8-15.2q0-10.39-2.7-16.7a22.52,22.52,0,0,0-7-9.5,23.14,23.14,0,0,0-9.6-4.2,56.2,56.2,0,0,0-10.5-1q-3.6,0-7.3.1a51.29,51.29,0,0,0-6.3.5Z" transform="translate(-224 -149)" fill="#231f20"/><line x1="34" y1="1" x2="35" y2="501" fill="none" stroke="#231f20" stroke-miterlimit="10" stroke-width="15"/><line x1="365" y1="7" x2="364.01" y2="508.5" fill="none" stroke="#231f20" stroke-miterlimit="10" stroke-width="2"/><line x1="364.01" y1="508.5" x2="8.99" y2="508.5" fill="none" stroke="#231f20" stroke-miterlimit="10" stroke-width="2"/><line x1="351" y1="501" x2="364.01" y2="508.5" fill="none" stroke="#231f20" stroke-miterlimit="10" stroke-width="2"/><path d="M225.16,650.09a7.61,7.61,0,0,0,2.71,3.69,32.45,32.45,0,0,0,5.29,3.68.69.69,0,0,0,.68,0" transform="translate(-224 -149)" fill="none" stroke="#231f20" stroke-miterlimit="10" stroke-width="2"/><line x1="3.19" y1="501" x2="12.68" y2="508.5" fill="none" stroke="#231f20" stroke-miterlimit="10" stroke-width="2"/><path d="M574.64,150a38.58,38.58,0,0,0,7.11,4.63A23.28,23.28,0,0,0,590,157" transform="translate(-224 -149)" fill="none" stroke="#231f20" stroke-miterlimit="10" stroke-width="2"/><rect x="362.87" y="507.57" width="2.11" height="1.9" rx="0.1" fill="#231f20" stroke="#231f20" stroke-miterlimit="10" stroke-width="0.06"/></svg>